<svg width="113" height="83" viewBox="0 0 113 83" fill="none" xmlns="http://www.w3.org/2000/svg">
<path fill-rule="evenodd" clip-rule="evenodd" d="M86.8581 54.5517C90.1223 49.1339 92 42.7862 92 36C92 16.1177 75.8823 0 56 0C36.1177 0 20 16.1177 20 36C20 43.7334 22.4384 50.8972 26.5884 56.7646L41.5 43L55.5 55.5L71 39.5L86.8581 54.5517Z" fill="url(#paint0_radial)"/>
<path d="M11.52 79L11.504 72.28L8.208 77.816H7.04L3.76 72.424V79H1.328V67.8H3.472L7.664 74.76L11.792 67.8H13.92L13.952 79H11.52ZM21.5853 79.192C19.9853 79.192 18.7373 78.7493 17.8413 77.864C16.9559 76.9787 16.5133 75.7147 16.5133 74.072V67.8H19.1053V73.976C19.1053 75.9813 19.9373 76.984 21.6013 76.984C22.4119 76.984 23.0306 76.744 23.4573 76.264C23.8839 75.7733 24.0972 75.0107 24.0972 73.976V67.8H26.6573V74.072C26.6573 75.7147 26.2093 76.9787 25.3133 77.864C24.4279 78.7493 23.1853 79.192 21.5853 79.192ZM36.3546 79L34.1946 75.88H34.0666H31.8106V79H29.2186V67.8H34.0666C35.0586 67.8 35.9173 67.9653 36.6426 68.296C37.3786 68.6267 37.944 69.096 38.3386 69.704C38.7333 70.312 38.9306 71.032 38.9306 71.864C38.9306 72.696 38.728 73.416 38.3226 74.024C37.928 74.6213 37.3626 75.08 36.6266 75.4L39.1386 79H36.3546ZM36.3066 71.864C36.3066 71.2347 36.104 70.7547 35.6986 70.424C35.2933 70.0827 34.7013 69.912 33.9226 69.912H31.8106V73.816H33.9226C34.7013 73.816 35.2933 73.6453 35.6986 73.304C36.104 72.9627 36.3066 72.4827 36.3066 71.864ZM48.3603 76.6H43.1603L42.1683 79H39.5122L44.5043 67.8H47.0643L52.0723 79H49.3523L48.3603 76.6ZM47.5443 74.632L45.7683 70.344L43.9923 74.632H47.5443ZM56.9143 79.192C56.0289 79.192 55.1703 79.0747 54.3383 78.84C53.5169 78.5947 52.8556 78.28 52.3543 77.896L53.2343 75.944C53.7143 76.296 54.2849 76.5787 54.9463 76.792C55.6076 77.0053 56.2689 77.112 56.9303 77.112C57.6663 77.112 58.2103 77.0053 58.5623 76.792C58.9143 76.568 59.0903 76.2747 59.0903 75.912C59.0903 75.6453 58.9836 75.4267 58.7703 75.256C58.5676 75.0747 58.3009 74.9307 57.9703 74.824C57.6503 74.7173 57.2129 74.6 56.6583 74.472C55.8049 74.2693 55.1063 74.0667 54.5623 73.864C54.0183 73.6613 53.5489 73.336 53.1543 72.888C52.7703 72.44 52.5783 71.8427 52.5783 71.096C52.5783 70.4453 52.7543 69.8587 53.1063 69.336C53.4583 68.8027 53.9863 68.3813 54.6903 68.072C55.4049 67.7627 56.2743 67.608 57.2983 67.608C58.0129 67.608 58.7116 67.6933 59.3943 67.864C60.0769 68.0347 60.6743 68.28 61.1863 68.6L60.3863 70.568C59.3516 69.9813 58.3169 69.688 57.2823 69.688C56.5569 69.688 56.0183 69.8053 55.6663 70.04C55.3249 70.2747 55.1543 70.584 55.1543 70.968C55.1543 71.352 55.3516 71.64 55.7463 71.832C56.1516 72.0133 56.7649 72.1947 57.5863 72.376C58.4396 72.5787 59.1383 72.7813 59.6823 72.984C60.2263 73.1867 60.6903 73.5067 61.0743 73.944C61.4689 74.3813 61.6663 74.9733 61.6663 75.72C61.6663 76.36 61.4849 76.9467 61.1223 77.48C60.7703 78.0027 60.2369 78.4187 59.5223 78.728C58.8076 79.0373 57.9383 79.192 56.9143 79.192ZM73.3286 79.192C72.1873 79.192 71.1526 78.9467 70.2246 78.456C69.3073 77.9547 68.582 77.2667 68.0486 76.392C67.526 75.5067 67.2646 74.5093 67.2646 73.4C67.2646 72.2907 67.526 71.2987 68.0486 70.424C68.582 69.5387 69.3073 68.8507 70.2246 68.36C71.1526 67.8587 72.1926 67.608 73.3446 67.608C74.3153 67.608 75.19 67.7787 75.9686 68.12C76.758 68.4613 77.4193 68.952 77.9526 69.592L76.2886 71.128C75.5313 70.2533 74.5926 69.816 73.4726 69.816C72.7793 69.816 72.1606 69.9707 71.6166 70.28C71.0726 70.5787 70.646 71 70.3366 71.544C70.038 72.088 69.8886 72.7067 69.8886 73.4C69.8886 74.0933 70.038 74.712 70.3366 75.256C70.646 75.8 71.0726 76.2267 71.6166 76.536C72.1606 76.8347 72.7793 76.984 73.4726 76.984C74.5926 76.984 75.5313 76.5413 76.2886 75.656L77.9526 77.192C77.4193 77.8427 76.758 78.3387 75.9686 78.68C75.1793 79.0213 74.2993 79.192 73.3286 79.192ZM79.703 67.8H82.295V76.888H87.911V79H79.703V67.8ZM94.1946 79.192C92.5946 79.192 91.3466 78.7493 90.4506 77.864C89.5653 76.9787 89.1226 75.7147 89.1226 74.072V67.8H91.7146V73.976C91.7146 75.9813 92.5466 76.984 94.2106 76.984C95.0213 76.984 95.64 76.744 96.0666 76.264C96.4933 75.7733 96.7066 75.0107 96.7066 73.976V67.8H99.2666V74.072C99.2666 75.7147 98.8186 76.9787 97.9226 77.864C97.0373 78.7493 95.7946 79.192 94.1946 79.192ZM110.052 73.176C110.692 73.3787 111.193 73.72 111.556 74.2C111.919 74.6693 112.1 75.2507 112.1 75.944C112.1 76.9253 111.716 77.6827 110.948 78.216C110.191 78.7387 109.081 79 107.62 79H101.828V67.8H107.3C108.665 67.8 109.711 68.0613 110.436 68.584C111.172 69.1067 111.54 69.816 111.54 70.712C111.54 71.256 111.407 71.7413 111.14 72.168C110.884 72.5947 110.521 72.9307 110.052 73.176ZM104.404 69.752V72.392H106.98C107.62 72.392 108.105 72.28 108.436 72.056C108.767 71.832 108.932 71.5013 108.932 71.064C108.932 70.6267 108.767 70.3013 108.436 70.088C108.105 69.864 107.62 69.752 106.98 69.752H104.404ZM107.428 77.048C108.111 77.048 108.623 76.936 108.964 76.712C109.316 76.488 109.492 76.1413 109.492 75.672C109.492 74.744 108.804 74.28 107.428 74.28H104.404V77.048H107.428Z" fill="white"/>
<defs>
<radialGradient id="paint0_radial" cx="0" cy="0" r="1" gradientUnits="userSpaceOnUse" gradientTransform="translate(49 44.5) rotate(-80.1939) scale(41.1005 52.1317)">
<stop stop-color="#562B5E"/>
<stop offset="1" stop-color="#BF4148"/>
</radialGradient>
</defs>
</svg>
